<svg xmlns="http://www.w3.org/2000/svg" viewBox="0 0 1200 420" fill="none">
  <g stroke="#d7b46a" stroke-width="1" opacity=".55" vector-effect="non-scaling-stroke">
    <path d="M72 240 170 120l130 80 120-70 160 130 120-96 140 116 220-160"/>
    <path d="M184 308 300 200l164 52 172-140 204 168 128-80" opacity=".62"/>
    <path d="M0 355h1200M0 250h1200M0 145h1200" opacity=".12"/>
    <path d="M140 0v420M320 0v420M500 0v420M680 0v420M860 0v420M1040 0v420" opacity=".1"/>
  </g>
  <g fill="#d7b46a" opacity=".8">
    <circle cx="72" cy="240" r="3"/><circle cx="170" cy="120" r="3"/><circle cx="300" cy="200" r="3"/>
    <circle cx="420" cy="130" r="3"/><circle cx="580" cy="260" r="3"/><circle cx="700" cy="164" r="3"/>
    <circle cx="840" cy="280" r="3"/><circle cx="1060" cy="120" r="3"/>
    <circle cx="184" cy="308" r="2"/><circle cx="464" cy="252" r="2"/><circle cx="636" cy="112" r="2"/><circle cx="968" cy="200" r="2"/>
  </g>
  <g stroke="#d7b46a" opacity=".44" vector-effect="non-scaling-stroke">
    <path d="M83 85l10 30 30 10-30 10-10 30-10-30-30-10 30-10 10-30Z"/>
    <path d="M1090 250l7 22 22 7-22 7-7 22-7-22-22-7 22-7 7-22Z"/>
  </g>
</svg>
