<svg xmlns="http://www.w3.org/2000/svg" viewBox="0 0 900 360" fill="none">
  <g opacity=".38" stroke="#d4ac62" stroke-width="1">
    <path d="M72 244L164 130L276 198L398 82L532 174L690 96L822 214"/>
    <path d="M164 130L398 82M276 198L532 174M532 174L822 214" opacity=".45"/>
    <circle cx="72" cy="244" r="3" fill="#d4ac62"/><circle cx="164" cy="130" r="4" fill="#d4ac62"/>
    <circle cx="276" cy="198" r="3" fill="#d4ac62"/><circle cx="398" cy="82" r="4" fill="#d4ac62"/>
    <circle cx="532" cy="174" r="3" fill="#d4ac62"/><circle cx="690" cy="96" r="4" fill="#d4ac62"/>
    <circle cx="822" cy="214" r="3" fill="#d4ac62"/>
  </g>
  <g opacity=".28" fill="#fffaf0">
    <circle cx="110" cy="80" r="1.5"/><circle cx="300" cy="48" r="1"/><circle cx="612" cy="55" r="1.4"/>
    <circle cx="790" cy="70" r="1"/><circle cx="192" cy="288" r="1"/><circle cx="458" cy="290" r="1.4"/>
    <circle cx="735" cy="302" r="1.2"/>
  </g>
</svg>
