<svg xmlns="http://www.w3.org/2000/svg" viewBox="0 0 640 640" fill="none">
  <g stroke="#8a5c24" stroke-width="1.2" opacity=".88" vector-effect="non-scaling-stroke">
    <circle cx="320" cy="320" r="296"/>
    <circle cx="320" cy="320" r="252"/>
    <circle cx="320" cy="320" r="194" opacity=".45"/>
    <circle cx="320" cy="320" r="92" opacity=".38"/>
    <path d="M320 24v592M24 320h592M111 111l418 418M529 111 111 529" opacity=".36"/>
    <path d="M320 68l74 168 182 20-136 124 38 180-158-92-158 92 38-180L64 256l182-20 74-168Z" opacity=".5"/>
    <path d="M180 103l280 434M460 103 180 537M103 180l434 280M537 180 103 460" opacity=".24"/>
  </g>
  <g fill="#8a5c24" opacity=".78" font-family="Georgia, serif" font-size="22" text-anchor="middle" dominant-baseline="middle">
    <text x="320" y="52">♈</text><text x="454" y="88">♉</text><text x="552" y="186">♊</text><text x="588" y="320">♋</text>
    <text x="552" y="454">♌</text><text x="454" y="552">♍</text><text x="320" y="588">♎</text><text x="186" y="552">♏</text>
    <text x="88" y="454">♐</text><text x="52" y="320">♑</text><text x="88" y="186">♒</text><text x="186" y="88">♓</text>
  </g>
  <g fill="#8a5c24" opacity=".55">
    <circle cx="320" cy="24" r="3"/><circle cx="616" cy="320" r="3"/><circle cx="320" cy="616" r="3"/><circle cx="24" cy="320" r="3"/>
  </g>
</svg>
