<svg xmlns="http://www.w3.org/2000/svg" viewBox="0 0 800 800" fill="none">
  <circle cx="400" cy="400" r="350" stroke="currentColor" stroke-width="1" opacity=".36"/>
  <circle cx="400" cy="400" r="292" stroke="currentColor" stroke-width="1" opacity=".22"/>
  <circle cx="400" cy="400" r="226" stroke="currentColor" stroke-width="1" opacity=".14"/>
  <g stroke="currentColor" stroke-width="1" opacity=".24">
    <path d="M400 50v116M400 634v116M50 400h116M634 400h116"/>
    <path d="M152.5 152.5l82 82M565.5 565.5l82 82M647.5 152.5l-82 82M234.5 565.5l-82 82"/>
    <path d="M225 96l52 98M575 704l-52-98M96 575l98-52M704 225l-98 52"/>
    <path d="M575 96l-52 98M225 704l52-98M96 225l98 52M704 575l-98-52"/>
  </g>
  <g fill="currentColor" opacity=".34" font-family="Georgia,serif" font-size="34" text-anchor="middle" dominant-baseline="middle">
    <text x="400" y="92">♈</text><text x="553" y="133">♉</text><text x="667" y="247">♊</text><text x="708" y="400">♋</text>
    <text x="667" y="553">♌</text><text x="553" y="667">♍</text><text x="400" y="708">♎</text><text x="247" y="667">♏</text>
    <text x="133" y="553">♐</text><text x="92" y="400">♑</text><text x="133" y="247">♒</text><text x="247" y="133">♓</text>
  </g>
</svg>
